<?xml version="1.0" standalone="no"?>
<!DOCTYPE svg PUBLIC "-//W3C//DTD SVG 20010904//EN"
 "http://www.w3.org/TR/2001/REC-SVG-20010904/DTD/svg10.dtd">
<svg version="1.0" xmlns="http://www.w3.org/2000/svg"
 width="512.000000pt" height="512.000000pt" viewBox="0 0 512.000000 512.000000"
 preserveAspectRatio="xMidYMid meet">

<g transform="translate(0.000000,512.000000) scale(0.100000,-0.100000)"
fill="#000000" stroke="none">
<path d="M2161 5034 c-145 -49 -232 -130 -312 -291 -34 -69 -68 -166 -69 -195
0 -24 20 -1 38 42 55 131 168 252 289 308 77 35 205 39 342 11 104 -21 123
-29 70 -29 -19 0 -103 -9 -188 -20 -189 -24 -264 -56 -370 -156 -105 -98 -149
-161 -173 -245 -14 -50 -37 -97 -73 -148 -59 -85 -118 -200 -159 -308 -15 -40
-31 -73 -36 -73 -12 0 -50 64 -50 84 0 10 -5 26 -10 36 -10 19 -11 19 -45 -1
-44 -26 -89 -22 -93 8 -5 33 41 60 79 46 28 -11 29 -10 29 19 0 63 -37 90 -59
42 -11 -24 -15 -26 -59 -19 -26 3 -52 13 -59 21 -9 13 -16 11 -46 -16 -68 -59
-79 -137 -25 -174 53 -38 125 -82 150 -93 35 -16 76 -73 169 -234 l74 -128 47
-1 c39 0 48 -3 54 -22 4 -13 17 -35 29 -50 12 -14 25 -46 29 -70 4 -23 16 -73
27 -110 22 -73 20 -88 -15 -88 -19 0 -35 23 -101 153 -78 154 -107 197 -132
197 -8 0 -53 -16 -101 -36 -80 -33 -89 -35 -129 -24 -23 7 -71 10 -105 8 -44
-4 -73 0 -96 11 -27 12 -40 13 -77 3 -25 -7 -58 -12 -75 -12 -36 0 -145 -25
-225 -51 -33 -11 -99 -28 -147 -39 -145 -32 -385 -132 -441 -184 -38 -36 -76
-125 -93 -219 -8 -43 -16 -82 -18 -86 -9 -15 33 -157 63 -211 39 -71 106 -154
286 -356 158 -177 235 -249 334 -313 35 -22 138 -113 229 -202 l165 -160 -6
-51 c-8 -64 -44 -125 -102 -172 -25 -21 -63 -63 -85 -94 -46 -68 -133 -158
-292 -306 -65 -61 -118 -115 -118 -121 0 -7 26 -41 58 -76 31 -35 78 -89 103
-119 78 -92 128 -140 148 -140 11 0 41 16 67 36 l48 37 105 -16 c59 -9 127
-19 153 -23 26 -3 51 -11 56 -18 5 -6 6 -41 1 -81 -13 -110 -10 -217 6 -271
15 -50 72 -140 132 -208 l32 -36 1440 2 1440 3 -63 105 c-42 70 -70 106 -83
108 -35 5 -58 40 -173 261 l-112 215 18 52 c16 49 16 55 1 96 -19 48 -22 88
-8 88 17 0 77 -76 174 -220 54 -80 115 -170 137 -200 66 -94 180 -334 191
-404 5 -33 11 -71 14 -83 l5 -23 345 0 c215 0 345 4 345 10 0 5 14 25 30 43
l30 35 0 161 c0 89 -4 169 -10 179 -11 20 -51 109 -122 272 -28 63 -67 147
-86 185 -20 39 -59 126 -87 195 -43 106 -54 124 -70 122 -57 -10 -96 -4 -155
22 -100 44 -103 48 -79 108 20 52 20 54 -22 108 -27 36 -72 141 -83 195 -3 17
-10 77 -15 135 -6 75 -17 124 -36 173 -56 140 -178 290 -256 315 -47 16 -160
31 -190 26 -28 -5 -38 1 -61 37 -11 18 -30 29 -54 34 -21 3 -60 18 -86 31 -36
18 -58 23 -82 18 -22 -4 -44 0 -66 11 -19 10 -44 15 -60 11 -19 -3 -37 2 -59
18 -17 13 -51 29 -76 36 -24 7 -51 20 -60 30 -14 15 -13 20 15 55 21 27 28 44
24 61 -4 17 3 34 26 64 23 29 34 56 40 98 4 33 18 78 30 102 12 24 29 65 37
93 14 47 14 50 -8 73 l-23 24 30 57 c16 31 37 57 46 59 77 11 213 196 254 344
19 72 53 260 49 274 -2 6 -6 23 -9 39 -11 47 -26 30 -27 -30 l-1 -58 -13 40
c-8 22 -14 51 -14 65 -2 46 -21 97 -50 134 -17 21 -32 42 -34 49 -2 7 -8 9
-12 5 -4 -4 -2 -37 5 -75 7 -37 10 -79 8 -93 -4 -23 -5 -22 -14 10 -6 19 -17
35 -25 35 -11 0 -14 -15 -14 -64 0 -35 -5 -66 -10 -68 -10 -3 -45 65 -45 87 0
6 -4 10 -10 10 -5 0 -10 -9 -10 -20 0 -35 -15 -22 -29 24 -15 53 -40 69 -42
28 -1 -15 -1 -30 0 -34 0 -5 -3 -8 -9 -8 -13 0 -29 62 -20 80 9 19 -6 127 -27
200 -26 86 -118 272 -150 303 -28 26 -79 47 -113 47 -9 0 1 -15 25 -39 88 -86
173 -279 183 -415 4 -60 2 -77 -7 -72 -7 4 -11 15 -10 24 3 24 -8 63 -48 177
-60 166 -155 283 -231 285 -33 0 -17 18 23 26 19 3 35 10 35 14 0 11 -48 30
-78 30 -23 1 -24 2 -10 11 33 19 113 39 157 39 43 0 44 1 27 19 -10 11 -30 25
-46 31 -18 7 -27 17 -23 26 5 13 -4 17 -80 29 -25 4 -54 20 -80 44 -23 21 -62
48 -87 60 -25 12 -72 49 -105 82 -51 50 -76 65 -162 99 -180 71 -356 87 -482
44z m392 -221 c-7 -2 -19 -2 -25 0 -7 3 -2 5 12 5 14 0 19 -2 13 -5z m36 -98
c40 -13 95 -52 80 -56 -21 -7 -56 -5 -66 3 -9 8 -13 6 -13 -4 0 -12 -20 -15
-97 -17 -116 -2 -310 -18 -323 -26 -5 -3 -38 -3 -72 1 l-63 7 43 19 c66 29
195 48 332 48 87 0 121 3 113 11 -10 10 -193 13 -307 4 -74 -5 -66 5 11 14
128 15 312 13 362 -4z m-30 -209 c-2 -2 -31 -6 -64 -9 -36 -3 -52 -2 -40 3 19
8 113 14 104 6z m-224 -54 c-94 -35 -128 -52 -230 -113 -24 -14 -35 -17 -28
-8 38 47 273 157 338 158 11 0 -25 -17 -80 -37z m150 -36 c-27 -7 -68 -22 -90
-33 -22 -11 -69 -35 -104 -53 -76 -39 -162 -96 -209 -139 -19 -17 -42 -33 -53
-36 -10 -4 -19 -10 -19 -15 0 -4 -9 -10 -20 -13 -20 -5 -20 -5 -1 22 47 66
197 183 279 218 69 30 187 62 227 61 l40 0 -50 -12z m639 -29 c72 -75 152
-255 144 -324 -3 -23 -12 -10 -56 78 -29 59 -66 127 -81 151 -29 46 -103 98
-140 98 -32 0 -25 18 12 29 61 18 78 13 121 -32z m-589 -27 c-11 -5 -27 -9
-35 -9 -9 0 -8 4 5 9 11 5 27 9 35 9 9 0 8 -4 -5 -9z m-145 -54 c0 -2 -35 -25
-79 -50 -43 -24 -93 -57 -112 -71 -20 -16 -15 -9 11 15 25 23 74 57 110 76 72
36 70 36 70 30z m743 -176 c52 -108 73 -208 49 -232 -12 -12 -14 -7 -73 132
-52 123 -70 162 -75 158 -2 -3 8 -52 23 -111 15 -58 24 -109 20 -113 -14 -15
-35 22 -66 116 -17 53 -40 104 -52 113 -20 18 -20 18 10 47 16 17 34 30 40 30
6 0 11 5 11 12 0 33 69 -59 113 -152z m-1056 -61 c-45 -47 -95 -96 -112 -109
l-30 -25 25 30 c27 32 194 194 197 191 1 -1 -35 -40 -80 -87z m-284 9 c-8 -29
-35 -99 -60 -156 -24 -56 -49 -116 -55 -133 l-10 -30 -29 27 c-16 15 -29 34
-29 41 0 25 61 142 102 195 40 51 89 108 94 108 1 0 -5 -24 -13 -52z m1125
-26 c6 -18 -15 -14 -22 4 -4 10 -1 14 6 12 6 -2 14 -10 16 -16z m-645 -333
c-116 -79 -150 -97 -123 -64 22 26 132 95 142 89 5 -3 -3 -15 -19 -25z m-143
-93 c0 -2 -8 -10 -17 -17 -16 -13 -17 -12 -4 4 13 16 21 21 21 13z m-193 -154
c8 -5 2 -18 -19 -42 -18 -22 -27 -27 -23 -15 4 11 10 30 12 43 6 23 11 26 30
14z m605 -81 c-3 -14 -5 -36 -5 -47 1 -29 -31 -21 -46 12 -16 35 -14 44 11 53
37 14 46 10 40 -18z m-575 -137 c-3 -3 -24 -8 -46 -11 -41 -6 -41 -6 -41 28 0
24 9 42 33 67 l32 33 14 -56 c7 -31 11 -58 8 -61z m500 -199 c0 -16 2 -36 2
-42 1 -7 8 -13 16 -13 20 0 19 -16 -1 -24 -25 -10 -91 -7 -118 5 -21 10 -23
15 -15 36 14 38 59 74 88 71 21 -2 26 -9 28 -33z m157 -101 c9 -23 8 -24 -14
-24 -19 0 -27 20 -13 33 11 11 20 8 27 -9z m-1121 -100 c54 -27 183 -120 207
-148 27 -33 -4 -38 -64 -10 -31 14 -84 28 -117 31 -52 5 -64 3 -90 -16 -27
-20 -32 -21 -47 -8 -37 34 -71 38 -118 17 -38 -16 -46 -17 -49 -5 -3 8 -7 22
-10 30 -2 8 -16 15 -31 15 -44 0 -22 22 46 45 36 12 79 30 95 39 17 9 41 16
55 17 14 0 34 4 45 9 11 5 21 9 23 9 1 1 26 -11 55 -25z m276 -741 c2 -196 21
-296 78 -406 36 -67 53 -85 33 -32 -22 57 -1 34 33 -37 32 -68 64 -185 52
-196 -12 -12 -44 34 -65 91 -13 34 -42 101 -66 149 -73 146 -88 216 -86 402 1
140 6 196 16 196 2 0 4 -75 5 -167z m-238 85 c-56 -329 -66 -467 -36 -553 9
-27 43 -97 75 -155 32 -58 64 -118 69 -133 6 -16 25 -48 42 -73 16 -24 26 -44
20 -44 -24 0 -82 79 -107 145 -10 28 -38 84 -61 125 -24 41 -50 98 -60 125
-22 68 -22 234 2 345 10 47 19 103 20 125 2 22 8 60 15 85 10 39 17 65 19 79
1 2 4 2 7 -2 4 -3 1 -34 -5 -69z m679 24 c52 -25 55 -29 55 -64 0 -47 21 -68
76 -75 48 -7 89 -28 89 -47 0 -7 -13 -39 -29 -72 -15 -32 -34 -76 -42 -96 -8
-25 -19 -38 -31 -38 -54 0 -213 46 -288 83 -96 47 -90 33 -71 172 15 108 18
115 75 141 66 30 99 29 166 -4z m450 -114 c0 -13 3 -39 6 -58 5 -33 3 -37 -40
-63 -51 -32 -62 -57 -51 -114 4 -25 2 -38 -7 -44 -15 -10 -73 -11 -145 -3 -41
5 -50 10 -46 23 8 25 37 85 44 91 4 3 9 14 13 25 14 46 111 131 171 153 45 16
55 14 55 -10z m-941 -312 c6 -24 14 -52 18 -62 6 -17 5 -17 -10 -5 -9 7 -19
29 -23 50 -3 20 -8 44 -11 55 -3 11 -1 16 5 12 5 -3 15 -25 21 -50z m116 -288
c13 -29 26 -64 30 -78 7 -22 6 -23 -8 -11 -23 18 -48 70 -53 109 -6 46 4 40
31 -20z m179 -8 c20 -33 33 -67 30 -75 -3 -7 5 -29 19 -47 50 -66 217 -331
217 -344 0 -37 -68 18 -74 59 -1 7 -11 26 -22 42 -68 99 -150 246 -174 313
-15 42 -31 85 -35 95 -15 37 6 14 39 -43z m1496 -75 c0 -8 5 -15 10 -15 6 0
10 -9 10 -19 0 -11 5 -23 11 -27 6 -4 -5 -14 -27 -23 -29 -13 -45 -15 -65 -8
-32 12 -34 37 -3 37 21 0 23 4 18 29 -5 23 -2 30 12 34 32 8 34 7 34 -8z
m-1810 -310 c0 -5 -5 -3 -10 5 -5 8 -10 20 -10 25 0 6 5 3 10 -5 5 -8 10 -19
10 -25z m111 -51 c17 -6 49 -65 49 -90 0 -24 39 -94 53 -94 7 0 18 -5 24 -11
14 -14 -11 -44 -30 -36 -14 5 -137 216 -137 236 0 7 6 10 13 7 6 -3 19 -9 28
-12z m538 -140 c31 -46 38 -64 23 -64 -9 0 -72 92 -72 104 0 18 22 0 49 -40z
m-60 -71 c40 -56 50 -83 32 -83 -13 0 -101 110 -101 126 0 30 30 11 69 -43z"/>
<path d="M1911 1605 c0 -5 6 -21 14 -35 8 -14 14 -20 14 -15 0 6 -6 21 -14 35
-8 14 -14 21 -14 15z"/>
<path d="M3485 1360 c-3 -5 1 -10 9 -10 9 0 16 5 16 10 0 6 -4 10 -9 10 -6 0
-13 -4 -16 -10z"/>
<path d="M3310 4671 c78 -42 95 -48 85 -31 -11 18 -89 58 -125 64 -28 5 -20
-1 40 -33z"/>
<path d="M3469 4565 c36 -39 74 -79 85 -90 l20 -20 -14 20 c-32 44 -77 94
-115 126 -27 23 -20 11 24 -36z"/>
<path d="M3777 4108 c8 -35 21 -96 28 -136 18 -103 29 -103 22 0 -3 63 -11
101 -30 142 -14 31 -28 56 -31 56 -2 0 3 -28 11 -62z"/>
<path d="M3466 4117 c3 -10 9 -15 12 -12 3 3 0 11 -7 18 -10 9 -11 8 -5 -6z"/>
<path d="M3470 4081 c0 -6 5 -13 10 -16 6 -3 10 1 10 9 0 9 -4 16 -10 16 -5 0
-10 -4 -10 -9z"/>
<path d="M3480 4026 c0 -8 4 -17 9 -20 5 -4 7 3 4 14 -6 23 -13 26 -13 6z"/>
<path d="M4415 1670 c8 -70 48 -171 91 -227 39 -51 39 -48 19 -104 -9 -23 -12
-46 -8 -50 25 -23 131 -69 158 -69 37 0 60 22 50 47 -6 17 -7 17 -19 1 -7 -10
-25 -18 -40 -18 -34 0 -124 51 -119 68 3 8 10 6 21 -7 22 -25 72 -37 72 -17 0
7 -7 19 -15 26 -10 9 -15 9 -15 1 0 -6 -7 -11 -15 -11 -8 0 -15 7 -15 16 0 8
5 12 10 9 6 -3 10 -2 10 4 0 5 -9 11 -20 13 -15 2 -17 7 -10 18 8 13 13 13 31
2 11 -7 23 -11 26 -9 10 11 -24 49 -48 54 -31 6 -90 73 -114 129 -9 21 -25 71
-36 109 l-20 70 6 -55z"/>
<path d="M4480 1584 c0 -5 7 -18 15 -28 8 -11 15 -16 15 -10 0 5 -7 18 -15 28
-8 11 -15 16 -15 10z"/>
<path d="M4510 1576 c0 -2 8 -10 18 -17 15 -13 16 -12 3 4 -13 16 -21 21 -21
13z"/>
<path d="M4520 1509 c0 -15 49 -41 66 -35 9 4 14 9 10 13 -12 12 -76 31 -76
22z"/>
</g>
</svg>
